<svg width="70" height="70" viewBox="0 0 70 70" fill="none" xmlns="http://www.w3.org/2000/svg">
<path d="M50.2393 22.4305L51.9609 21.4331L51.9573 21.4272L50.2393 22.4305ZM49.9046 23.7169L48.895 22.0194L48.886 22.0247L49.9046 23.7169ZM48.6008 23.3868L46.8838 24.3917L46.8876 24.398L48.6008 23.3868ZM20.2464 23.3886L21.9566 24.4043L21.9618 24.3958L20.2464 23.3886ZM18.9425 23.7152L19.9642 22.0249L19.9546 22.0192L18.9425 23.7152ZM21.7511 32.9726C21.7511 30.8167 20.011 28.9713 17.7466 28.9713V32.9059C17.7466 32.9059 17.736 32.9047 17.7305 32.9024C17.7266 32.9006 17.7286 32.9006 17.7338 32.9059C17.739 32.9112 17.7448 32.9193 17.7492 32.9297C17.7531 32.939 17.7569 32.9525 17.7569 32.9726H21.7511ZM17.7466 28.9713C15.4817 28.9713 13.7411 30.8165 13.7411 32.973H17.7355C17.7355 32.9527 17.7393 32.9392 17.7432 32.9297C17.7476 32.9193 17.7534 32.9112 17.7586 32.9059C17.7637 32.9008 17.7658 32.9008 17.7619 32.9024C17.7565 32.9047 17.7466 32.9059 17.7466 32.9059V28.9713ZM13.7411 32.973C13.7411 35.1317 15.4824 36.9748 17.7466 36.9748L17.7466 33.0403C17.7466 33.0403 17.7559 33.0413 17.7613 33.0436C17.7652 33.0454 17.7633 33.0454 17.7583 33.0403C17.7533 33.0352 17.7476 33.0275 17.7433 33.0171C17.7394 33.0078 17.7355 32.994 17.7355 32.973H13.7411ZM17.7466 36.9748C20.0104 36.9748 21.7511 35.1309 21.7511 32.9726H17.7569C17.7569 32.9936 17.753 33.0078 17.7491 33.0171C17.7447 33.0275 17.739 33.0354 17.734 33.0405C17.729 33.0456 17.7271 33.0456 17.7311 33.0438C17.7366 33.0415 17.7466 33.0403 17.7466 33.0403L17.7466 36.9748ZM51.9811 34.133C51.9811 34.1121 51.9848 34.0983 51.9888 34.0889C51.9932 34.0783 51.999 34.0704 52.0042 34.0653C52.0092 34.0602 52.011 34.0602 52.007 34.0619C52.0014 34.0643 51.9916 34.0655 51.9916 34.0655V30.1309C49.7254 30.1309 47.9867 31.977 47.9867 34.133H51.9811ZM51.9916 34.0655C51.9916 34.0655 51.9821 34.0643 51.9765 34.0619C51.9725 34.0602 51.9743 34.0602 51.9795 34.0653C51.9844 34.0704 51.9902 34.0785 51.9946 34.0889C51.9986 34.0983 52.0024 34.1119 52.0024 34.1326L55.9968 34.1326C55.9968 31.9766 54.2578 30.1309 51.9916 30.1309V34.0655ZM52.0024 34.1326C52.0024 34.1538 51.9984 34.1678 51.9946 34.177C51.9902 34.1874 51.9844 34.1953 51.9797 34.2002C51.9747 34.2052 51.9731 34.205 51.9771 34.2034C51.9826 34.2008 51.992 34.1998 51.992 34.1998V38.1344C54.2572 38.1344 55.9968 36.2903 55.9968 34.1326L52.0024 34.1326ZM51.992 34.1998L51.998 34.2006L52.0064 34.2032C52.0104 34.205 52.0086 34.205 52.0036 34.2C51.9988 34.1951 51.9932 34.1874 51.9888 34.177C51.985 34.1678 51.9811 34.1542 51.9811 34.133H47.9867C47.9867 36.2913 49.7266 38.1344 51.992 38.1344V34.1998ZM34.3983 16.0825C44.0149 16.0825 48.4023 23.2357 48.5213 23.4338L51.9573 21.4272C51.6679 20.9462 46.2435 12.1479 34.3983 12.1479V16.0825ZM48.5179 23.4277C48.448 23.3109 48.4031 23.1828 48.3843 23.051L52.3397 22.5027C52.2858 22.126 52.1574 21.7624 51.9609 21.4331L48.5179 23.4277ZM48.3843 23.051C48.3653 22.919 48.3729 22.7846 48.4067 22.6552L52.2758 23.6321C52.3719 23.2633 52.3934 22.8796 52.3397 22.5027L48.3843 23.051ZM48.4067 22.6552C48.4402 22.5257 48.4997 22.4028 48.583 22.2934L51.7779 24.6547C52.0112 24.3488 52.1799 24.001 52.2758 23.6321L48.4067 22.6552ZM48.583 22.2934C48.6663 22.184 48.772 22.0904 48.895 22.0194L50.9141 25.4143C51.2517 25.2195 51.5448 24.961 51.7779 24.6547L48.583 22.2934ZM48.886 22.0247C49.1237 21.886 49.4105 21.8443 49.6823 21.9131L48.6883 25.7239C49.4478 25.9161 50.2513 25.8015 50.9233 25.409L48.886 22.0247ZM49.6823 21.9131C49.9533 21.9816 50.1776 22.1516 50.314 22.3758L46.8876 24.398C47.2855 25.0519 47.9295 25.5319 48.6883 25.7239L49.6823 21.9131ZM50.3178 22.3821C50.047 21.9332 45.1247 14.0258 34.4496 14.0258V17.9604C38.693 17.9604 41.7607 19.5235 43.8042 21.1189C44.8317 21.9214 45.5982 22.7315 46.1131 23.351C46.37 23.6599 46.5619 23.919 46.6907 24.1023C46.755 24.1938 46.8031 24.266 46.8357 24.316C46.8683 24.3661 46.8838 24.3917 46.8838 24.3917L50.3178 22.3821ZM34.4496 14.0258C23.7271 14.0258 18.8041 21.9296 18.531 22.3811L21.9618 24.3958C22.0543 24.243 25.9388 17.9604 34.4496 17.9604V14.0258ZM18.5361 22.3727C18.673 22.149 18.8978 21.9796 19.1688 21.9117L20.1537 25.7249C20.9123 25.5347 21.5574 25.0568 21.9566 24.4043L18.5361 22.3727ZM19.1688 21.9117C19.4405 21.8437 19.727 21.8858 19.9642 22.0249L17.9209 25.4056C18.5917 25.7991 19.3943 25.9152 20.1537 25.7249L19.1688 21.9117ZM19.9546 22.0192C20.0776 22.0906 20.1833 22.1842 20.2665 22.2938L17.0685 24.6512C17.3011 24.9575 17.5937 25.2162 17.9305 25.4113L19.9546 22.0192ZM20.2665 22.2938C20.3496 22.4034 20.409 22.5265 20.4426 22.6562L16.5722 23.6288C16.6677 23.9975 16.8359 24.3451 17.0685 24.6512L20.2665 22.2938ZM20.4426 22.6562C20.4762 22.7858 20.4835 22.9202 20.4646 23.0522L16.5097 22.5002C16.4556 22.8767 16.4767 23.2601 16.5722 23.6288L20.4426 22.6562ZM20.4646 23.0522C20.4456 23.1842 20.4004 23.3124 20.3304 23.4293L16.8893 21.4315C16.6925 21.7605 16.5639 22.1236 16.5097 22.5002L20.4646 23.0522ZM20.3304 23.4293C20.4479 23.2332 24.8352 16.0825 34.3983 16.0825V12.1479C22.6021 12.1479 17.1781 20.949 16.8893 21.4315L20.3304 23.4293Z" fill="#F63D96"/>
<path d="M35 3C17.3269 3 3 17.3269 3 35C3 52.6731 17.3269 67 35 67C52.6732 67 67 52.6731 67 35C67 17.3269 52.6732 3 35 3Z" stroke="#F63D96" stroke-width="6"/>
</svg>
